<?xml version="1.0" encoding="UTF-8"?>
<!DOCTYPE svg PUBLIC "-//W3C//DTD SVG 1.1 Tiny//EN" "http://www.w3.org/Graphics/SVG/1.1/DTD/svg11-tiny.dtd">
<svg width="84" height="58" viewBox="0 0 84 58">
<linearGradient id="_63" gradientUnits="userSpaceOnUse" x1="58.89" y1="32.29" x2="47.46" y2="54.8">
<stop stop-color="#A2C2DD" offset="0.1"/>
<stop stop-color="#6C83BB" offset="0.71"/>
<stop stop-color="#003D6D" offset="0.99"/>
</linearGradient>
<path fill="url(#_63)" d="M50.352,2.42l-0.033,0.031h-0.021c-5.285,0.285-9.418,11.98-9.418,26.625 c0,14.652,3.979,26.092,9.34,26.643h4.996c2.131,0,4.117-1.807,5.758-5.184c0.346-0.199,11.242-6.574,11.441-6.697 c0.359,0.002,3.687,0.006,4.562,0.006c1.478,0,3.543-0.817,5.007-4.725c0.941-2.527,1.467-5.91,1.467-9.523 c0-6.525-1.715-13.109-5.547-13.109c0,0-4.617-0.059-5.055-0.064C72.563,16.205,60.8,7.319,60.8,7.319 c-1.607-3.166-3.521-4.902-5.59-4.902C55.211,2.416,50.352,2.42,50.352,2.42z M71.582,42.778l-0.012-0.005 c0,0,0.014-0.013,0.016-0.013C71.584,42.768,71.584,42.773,71.582,42.778z"/>
<linearGradient id="_64" gradientUnits="userSpaceOnUse" x1="23.27" y1="39.8" x2="29.04" y2="51.16">
<stop stop-color="#A2C2DD" offset="0.1"/>
<stop stop-color="#6C83BB" offset="0.71"/>
<stop stop-color="#003D6D" offset="0.99"/>
</linearGradient>
<path fill="url(#_64)" d="M17.562,28.336c0,0,0.029,15.633,0.029,17.166c-2.504-0.234-5.418,1.236-6.758,3.471 c-0.734,1.229-0.873,2.525-0.377,3.566c0.467,1,1.451,1.66,2.746,1.858c2.557,0.392,5.662-1.121,7.057-3.444 c0.439-0.729,0.66-1.488,0.66-2.215c0-0.105,0-9.92,0.004-10.86c0.828-0.254,8.742-2.697,10.209-3.144 c0.006,1.358,0.025,6.089,0.029,7.347c-2.527-0.289-5.496,1.203-6.854,3.457c-0.732,1.223-0.877,2.526-0.385,3.564 c0.469,1.005,1.449,1.662,2.742,1.859c2.564,0.397,5.672-1.117,7.061-3.445c0.475-0.791,0.705-1.629,0.654-2.426 c0.027,0.082,0.031-21.328,0.031-21.328L17.562,28.336z M20.912,33.031l0.037-1.875l10.15-3l0.037,1.969L20.912,33.031z"/>
<linearGradient id="_65" gradientUnits="userSpaceOnUse" x1="8.43" y1="17.5" x2="13.41" y2="27.31">
<stop stop-color="#A2C2DD" offset="0.1"/>
<stop stop-color="#6C83BB" offset="0.71"/>
<stop stop-color="#003D6D" offset="0.99"/>
</linearGradient>
<path fill="url(#_65)" d="M10.357,4.115c0,0,0.059,15.676,0.066,17.59c-0.09-0.043-0.285-0.129-0.285-0.129 c-2.498-0.621-5.703,0.594-7.293,2.768c-0.832,1.143-1.09,2.414-0.699,3.486c0.375,1.03,1.277,1.771,2.543,2.088 c2.496,0.621,5.699-0.594,7.291-2.764c0.529-0.719,0.822-1.512,0.861-2.299v-0.014l0.035,0.047c0,0,0.02-9.523,0.027-11.434 c1.617,0.777,2.738,1.641,3.152,2.742c0.164,0.43,0.235,0.906,0.246,1.426c0.05,2.549-1.719,5.125-1.719,5.125l1.664,1.191 l0.383-0.674c5.229-8.719-1.746-13.855-1.746-13.855c-1.194-1.27-2.147-2.294-2.209-4.645l-0.016-0.697L10.357,4.115z"/>
<linearGradient id="_66" gradientUnits="userSpaceOnUse" x1="74.45" y1="14.49" x2="80.52" y2="55.82">
<stop stop-color="#FFFFFF" offset="0"/>
<stop stop-color="#A2C2DD" offset="0.35"/>
<stop stop-color="#6C83BB" offset="0.7"/>
<stop stop-color="#003D6D" offset="1"/>
</linearGradient>
<path fill="url(#_66)" d="M76.977,43.148c-3.813,0,1.066-0.009-4.766-0.009c4.779-16.506-0.037-26.047-0.037-26.047 s0.111,0.068,5.729,0.094C84.465,17.188,84.563,43.148,76.977,43.148z"/>
<linearGradient id="_67" gradientUnits="userSpaceOnUse" x1="50.98" y1="-8.01" x2="61.11" y2="70.44">
<stop stop-color="#FFFFFF" offset="0"/>
<stop stop-color="#A2C2DD" offset="0.35"/>
<stop stop-color="#6C83BB" offset="0.7"/>
<stop stop-color="#003D6D" offset="1"/>
</linearGradient>
<path fill="url(#_67)" d="M50.219,55.023h4.611c0.057,0,0.311,0,0.385,0c4.922,0,8.918-11.62,8.918-25.95 c0-14.334-3.992-25.958-8.918-25.958c-0.049,0-0.098,0.02-0.146,0.023C55.033,3.134,55,3.115,54.963,3.115h-4.615 C49.453,3.115,49.32,55.028,50.219,55.023z"/>
<linearGradient id="_68" gradientUnits="userSpaceOnUse" x1="44.01" y1="3.76" x2="54.2" y2="43.53">
<stop stop-color="#FFFFFF" offset="0.05"/>
<stop stop-color="#A2C2DD" offset="1"/>
</linearGradient>
<ellipse fill="url(#_68)" cx="50.498" cy="29.072" rx="8.92" ry="25.951"/>
<linearGradient id="_69" gradientUnits="userSpaceOnUse" x1="17.85" y1="19.4" x2="53.78" y2="29.8">
<stop stop-color="#FFFFFF" offset="0"/>
<stop stop-color="#A2C2DD" offset="0.35"/>
<stop stop-color="#6C83BB" offset="0.7"/>
<stop stop-color="#003D6D" offset="1"/>
</linearGradient>
<ellipse fill="url(#_69)" cx="50.25" cy="28.776" rx="7.582" ry="22.063"/>
<linearGradient id="_70" gradientUnits="userSpaceOnUse" x1="48.39" y1="29.87" x2="64.59" y2="29.87">
<stop stop-color="#FFFFFF" offset="0"/>
<stop stop-color="#A2C2DD" offset="0.35"/>
<stop stop-color="#6C83BB" offset="0.7"/>
<stop stop-color="#003D6D" offset="1"/>
</linearGradient>
<path fill="url(#_70)" d="M57.133,19.283c-10.832,2.801-10.906,17.543-0.467,21.167 C57.445,36.153,58.727,28.428,57.133,19.283z"/>
<linearGradient id="_71" gradientUnits="userSpaceOnUse" x1="60.77" y1="1.82" x2="67.04" y2="35.32">
<stop stop-color="#FFFFFF" offset="0.05"/>
<stop stop-color="#A2C2DD" offset="1"/>
</linearGradient>
<path fill="url(#_71)" d="M72.174,43.172c-4.053,2.31-5.025,3.236-11.775,6.889c7.934-22.026,0-42.171,0-42.171 l12.182,9.205C72.578,17.094,77.602,29.258,72.174,43.172z"/>
<path fill="#58A015" d="M11.131,23.658l-0.07-18.859l0.924-0.02c0.064,2.68,1.224,3.856,2.394,5.106 c2.654,2.84,5.955,5.496,1.652,13.033l-0.537-0.385c3.109-5.91,1.119-8.543-3.293-10.238c0,0-0.027,10.623-0.027,12.594 C11.732,23.776,11.131,23.658,11.131,23.658z"/>
<path fill="#A15EB6" d="M33.701,45.18c-0.008-2.008,0.004-20.498,0.004-20.498l-15.441,4.191l0.031,18.166 c0,0,1.158-0.227,1.928,1.471c0-1.998,0-11.146,0-11.146l11.604-3.578l0.039,9.86C31.857,43.646,32.838,43.371,33.701,45.18z M20.223,34.066v-3.474l11.604-3.217v3.279L20.223,34.066z"/>
<radialGradient id="_72" gradientUnits="userSpaceOnUse" cx="7.81" cy="25.18" r="3.46">
<stop stop-color="#DCE8E4" offset="0"/>
<stop stop-color="#43910A" offset="1"/>
</radialGradient>
<path fill="url(#_72)" d="M11.424,26.74c-1.414,1.928-4.344,3.047-6.555,2.499c-2.207-0.549-2.855-2.556-1.445-4.482 c1.41-1.927,4.344-3.051,6.549-2.5C12.178,22.803,12.834,24.817,11.424,26.74z"/>
<radialGradient id="_73" gradientUnits="userSpaceOnUse" cx="15.45" cy="48.88" r="3.31">
<stop stop-color="#DEDEED" offset="0"/>
<stop stop-color="#9646AC" offset="1"/>
</radialGradient>
<path fill="url(#_73)" d="M19.658,50.596c-1.242,2.066-4.082,3.459-6.355,3.115c-2.273-0.348-3.107-2.301-1.871-4.375 c1.238-2.066,4.086-3.461,6.359-3.117C20.059,46.569,20.896,48.528,19.658,50.596z"/>
<radialGradient id="_74" gradientUnits="userSpaceOnUse" cx="30.34" cy="45.16" r="3.27">
<stop stop-color="#DEDEED" offset="0"/>
<stop stop-color="#9646AC" offset="1"/>
</radialGradient>
<path fill="url(#_74)" d="M33.123,47.162c-1.238,2.066-4.086,3.463-6.359,3.114c-2.266-0.349-3.105-2.306-1.859-4.375 c1.232-2.063,4.078-3.464,6.355-3.116C33.529,43.133,34.365,45.094,33.123,47.162z"/>
</svg>