<?xml version="1.0" encoding="UTF-8"?>
<!DOCTYPE svg PUBLIC "-//W3C//DTD SVG 1.1 Tiny//EN" "http://www.w3.org/Graphics/SVG/1.1/DTD/svg11-tiny.dtd">
<svg xmlns="http://www.w3.org/2000/svg" xmlns:xlink="http://www.w3.org/1999/xlink" baseProfile="tiny" height="29px" version="1.1" viewBox="0 0 42 29" width="42px" x="0px" y="0px">
<path d="M33.7,11.268V6.565c-0.002-1.693-1.371-3.063-3.064-3.065H11.362C9.669,3.502,8.299,4.872,8.297,6.565v14.077  c0,1.639,1.25,3.064,3.223,3.064c0,0.668,0.002,3.105,0.002,3.105c0,1.656,1.957,2.229,2.994,1.07  c0.561-0.682,3.434-4.176,3.434-4.176h0.927c0.384,0.797,1.192,1.352,2.134,1.352h7.54l2.015,2.447  c0.779,1.01,2.526,0.494,2.526-0.906v-1.57c1.131-0.184,1.998-1.168,1.998-2.349v-9.259C35.089,12.465,34.517,11.644,33.7,11.268z" fill-opacity="0.2" stroke-opacity="0.2"/>
<path d="M9.298,19.281v1.361c0,1.14,0.926,2.066,2.065,2.066h1.159v4.103c0,0.626,0.738,0.948,1.221,0.437  l3.736-4.539h2.158c0.015,0.744,0.626,1.35,1.374,1.35h8.011l2.314,2.812c0.327,0.326,0.756,0.082,0.756-0.271v-2.541h0.621  c0.756,0,1.376-0.619,1.376-1.377v-3.408L9.298,19.281z" fill-opacity="0.5" stroke-opacity="0.5"/>
<rect fill="none" height="29" width="42"/>
<linearGradient gradientUnits="userSpaceOnUse" id="SVGID_1_" x1="21" x2="21" y1="1.9023" y2="54.8015">
<stop offset="0" style="stop-color:#FFFFFF"/>
<stop offset="1" style="stop-color:#B2B2C9"/>
</linearGradient>
<path d="M12.521,25.812v-4.103h-1.159c-1.139,0-2.065-0.927-2.065-2.066V6.565  c0-1.138,0.926-2.065,2.065-2.065h19.272c1.14,0,2.066,0.927,2.066,2.065v15.154l-15.223-0.01l-3.736,4.539  C13.284,26.706,12.521,26.5,12.521,25.812z" fill="url(#SVGID_1_)"/>
<path d="M13.522,24.943v-4.235l-1.001,1.001v4.103c0,0.291,0.183,0.549,0.457,0.647L13.522,24.943z" fill="#FFFFFF" fill-opacity="0.4" stroke-opacity="0.4"/>
<path d="M32.092,5.103L31.385,5.81C31.579,6.002,31.7,6.27,31.7,6.565v14.138l-14.695,0.005l-3.483,4.235  l-0.544,1.516c0.077,0.027,0.154,0.041,0.232,0.041c0.203,0,0.399-0.09,0.532-0.252l3.736-4.539l15.223-0.006V6.565  C32.701,5.994,32.468,5.477,32.092,5.103z" fill-opacity="0.2" stroke-opacity="0.2"/>
<path d="M12.521,21.709l1.001-1.001h-2.16c-0.315,0-0.59-0.144-0.785-0.362l-0.711,0.712  c0.376,0.399,0.907,0.651,1.497,0.651H12.521z" fill-opacity="0.2" stroke-opacity="0.2"/>
<path d="M30.635,4.5H11.363c-1.139,0-2.065,0.927-2.065,2.065v13.078c0,0.549,0.218,1.045,0.568,1.415  l0.711-0.712c-0.168-0.188-0.278-0.43-0.278-0.703V6.565c0-0.588,0.477-1.065,1.063-1.065h19.273c0.293,0,0.557,0.119,0.749,0.309  l0.707-0.707C31.718,4.73,31.202,4.5,30.635,4.5z" fill="#FFFFFF" fill-opacity="0.4" stroke-opacity="0.4"/>
<rect fill="#8A8A8A" height="0.878" width="12.389" x="14.875" y="9.292"/>
<rect fill="#8A8A8A" height="0.878" width="5.562" x="14.875" y="12.295"/>
<rect fill="#8A8A8A" height="0.878" width="5.312" x="14.875" y="15.298"/>
<path d="M20.314,21.709c1.14,0,0.696-9.164,0.696-9.164c-1.035,0-1.877,0.842-1.877,1.876v7.287H20.314z" fill-opacity="0.3" stroke-opacity="0.3"/>
<linearGradient gradientTransform="matrix(-1 0 0 1 1170.873 0)" gradientUnits="userSpaceOnUse" id="SVGID_2_" x1="1144.0127" x2="1144.0127" y1="10.2983" y2="27.7666">
<stop offset="0" style="stop-color:#FFE23D"/>
<stop offset="0.2239" style="stop-color:#FAD337"/>
<stop offset="0.6537" style="stop-color:#EFAB26"/>
<stop offset="1" style="stop-color:#E48717"/>
</linearGradient>
<path d="M21.01,12.045h11.702c0.756,0,1.376,0.62,1.376,1.376v8.26c0,0.758-0.62,1.377-1.376,1.377h-0.621  V25.6c0,0.369-0.444,0.582-0.756,0.271l-2.314-2.812H21.01c-0.757,0-1.376-0.619-1.376-1.377v-8.26  C19.633,12.665,20.253,12.045,21.01,12.045z" fill="url(#SVGID_2_)"/>
<path d="M19.738,22.203c-0.067-0.16-0.104-0.337-0.104-0.521C19.633,21.866,19.671,22.043,19.738,22.203z M20,22.601  c-0.106-0.117-0.199-0.247-0.261-0.395C19.8,22.354,19.893,22.483,20,22.601z M20.024,22.637l0.007-0.007  c-0.01-0.011-0.022-0.019-0.032-0.029C20.01,22.611,20.014,22.627,20.024,22.637z M33.218,12.146c0.146,0.06,0.276,0.147,0.393,0.25  C33.493,12.293,33.364,12.204,33.218,12.146z M33.632,12.418l-0.706,0.706c0.095,0.068,0.162,0.174,0.162,0.297v8.261  c0,0.205-0.173,0.377-0.376,0.377h-1.621v1.939l-1.598-1.939H21.01c-0.113,0-0.212-0.057-0.282-0.138  c0.002,0.003,0.003,0.005,0.005,0.008l-0.701,0.701c0.25,0.259,0.592,0.429,0.979,0.429h8.011l2.314,2.812  c0.288,0.287,0.756,0.145,0.756-0.271v-2.541h0.621c0.756,0,1.376-0.619,1.376-1.377v-8.26  C34.088,13.022,33.907,12.669,33.632,12.418z M33.61,12.395c0.008,0.007,0.014,0.016,0.021,0.023l0.006-0.006  C33.63,12.405,33.619,12.402,33.61,12.395z" fill-opacity="0.2" stroke-opacity="0.2"/>
<path d="M20.732,21.929c-0.06-0.067-0.099-0.152-0.099-0.247v-8.261c0-0.204,0.172-0.374,0.376-0.374  h11.702c0.08,0,0.152,0.032,0.214,0.077l0.712-0.711c-0.246-0.226-0.569-0.367-0.926-0.367H21.01c-0.757,0-1.376,0.62-1.376,1.376  v8.26c0,0.371,0.15,0.707,0.391,0.955L20.732,21.929z" fill="#FFFFFF" fill-opacity="0.4" stroke-opacity="0.4"/>
<rect fill-opacity="0.5" fill-rule="evenodd" height="0.688" stroke-opacity="0.5" width="6.883" x="23.419" y="15.143"/>
<rect fill-opacity="0.5" fill-rule="evenodd" height="0.689" stroke-opacity="0.5" width="6.883" x="23.419" y="17.207"/>
<rect fill-opacity="0.5" fill-rule="evenodd" height="0.688" stroke-opacity="0.5" width="4.303" x="23.419" y="19.273"/>
</svg>
