<?xml version="1.0" encoding="UTF-8"?>
<!DOCTYPE svg PUBLIC "-//W3C//DTD SVG 1.1 Tiny//EN" "http://www.w3.org/Graphics/SVG/1.1/DTD/svg11-tiny.dtd">
<svg baseProfile="tiny" height="26px" version="1.1" viewBox="0 0 24 26" width="24px" x="0px" xmlns="http://www.w3.org/2000/svg" xmlns:xlink="http://www.w3.org/1999/xlink" y="0px">
<path d="M1.753,20.26c0,0,3.276-3.278,4.935-4.938c-0.584-1.175-0.901-2.475-0.901-3.826  c0-4.745,3.86-8.606,8.605-8.607C19.139,2.889,23,6.75,23,11.496s-3.861,8.607-8.607,8.607c-1.204,0-2.367-0.252-3.439-0.719  l-5.039,5.037c-0.97,0.969-2.468,0.87-3.34-0.002c-0.01-0.011-0.913-0.912-0.913-0.912C1.152,23.018,0.426,21.586,1.753,20.26z" fill-opacity="0.2" stroke-opacity="0.2"/>
<path d="M2.46,20.967c0.017-0.018,3.522-3.523,5.47-5.473c-0.721-1.162-1.144-2.529-1.144-3.998  c0-4.202,15.213-4.202,15.213,0s-3.404,7.607-7.607,7.607c-1.32,0-2.561-0.338-3.643-0.929c-1.917,1.917-5.525,5.522-5.542,5.54  c-0.531,0.53-1.395,0.529-1.926-0.002c-0.002-0.004-0.914-0.914-0.914-0.914S1.481,21.945,2.46,20.967z" fill-opacity="0.5" stroke-opacity="0.5"/>
<linearGradient gradientTransform="matrix(-1 0 0 1 -2540 0)" gradientUnits="userSpaceOnUse" id="SVGID_1_" x1="-2544.6929" x2="-2549.2595" y1="17.2695" y2="21.8361">
<stop offset="0" style="stop-color:#E3E3E3"/>
<stop offset="1" style="stop-color:#404040"/>
</linearGradient>
<path d="M8.335,14.09c-1.815,1.816-5.856,5.857-5.875,5.877c-0.979,0.979-0.093,1.832-0.093,1.832  s0.912,0.91,0.914,0.914c0.532,0.531,1.396,0.532,1.926,0.002c0.018-0.018,4.112-4.111,5.895-5.894L8.335,14.09z" fill="url(#SVGID_1_)"/>
<path d="M8.335,14.09l2.768,2.731c-0.298,0.298-0.676,0.675-1.091,1.089c-1.13-0.668-2.097-1.583-2.818-2.678  C7.626,14.798,8.021,14.402,8.335,14.09z" fill-opacity="0.3" stroke-opacity="0.3"/>
<linearGradient gradientTransform="matrix(-1 0 0 1 -2540 0)" gradientUnits="userSpaceOnUse" id="SVGID_2_" x1="-2554.3936" x2="-2554.3936" y1="3.8335" y2="23.4628">
<stop offset="0" style="stop-color:#E3E3E3"/>
<stop offset="1" style="stop-color:#404040"/>
</linearGradient>
<circle cx="14.394" cy="10.496" fill="url(#SVGID_2_)" r="7.606"/>
<linearGradient gradientTransform="matrix(-1 0 0 1 -2540 0)" gradientUnits="userSpaceOnUse" id="SVGID_3_" x1="-2554.394" x2="-2554.394" y1="16.5928" y2="6.7791">
<stop offset="0" style="stop-color:#DEEEF9"/>
<stop offset="0.1953" style="stop-color:#C2E7F8"/>
<stop offset="0.6144" style="stop-color:#7AD6F5"/>
<stop offset="1" style="stop-color:#33C5F3"/>
</linearGradient>
<circle cx="14.394" cy="10.367" fill="url(#SVGID_3_)" r="5.756"/>
<path d="M5.592,22.33l-2.749-2.748c0.109-0.108,0.241-0.24,0.404-0.404l2.748,2.75  C5.832,22.09,5.702,22.221,5.592,22.33z" fill="#FFFFFF" fill-opacity="0.4" stroke-opacity="0.4"/>
<linearGradient gradientTransform="matrix(-1 0 0 1 -2540 0)" gradientUnits="userSpaceOnUse" id="SVGID_4_" x1="-2554.3936" x2="-2554.3936" y1="17.4238" y2="-1.071">
<stop offset="0" style="stop-color:#E3E3E3"/>
<stop offset="1" style="stop-color:#404040"/>
</linearGradient>
<path d="M8.12,10.366L8.12,10.366c0,3.466,2.807,6.272,6.274,6.274c3.465-0.002,6.272-2.809,6.272-6.273  c0-3.466-2.808-6.274-6.272-6.274C10.927,4.093,8.12,6.9,8.12,10.366z M8.638,10.366c0-3.179,2.575-5.755,5.754-5.755  c3.181,0,5.757,2.576,5.757,5.757c-0.001,3.178-2.576,5.754-5.757,5.754C11.213,16.122,8.638,13.546,8.638,10.366z" fill="url(#SVGID_4_)"/>
<rect fill="none" height="26" width="24"/>
<path d="M19.077,8.077c-0.849-1.743-2.63-2.944-4.702-2.948c-2.894,0.005-5.232,2.345-5.238,5.238  c0.001,0.775,0.173,1.508,0.477,2.171L19.077,8.077z" fill="#FFFFFF" fill-opacity="0.4" stroke-opacity="0.4"/>
</svg>
