<?xml version="1.0" encoding="UTF-8"?>
<!DOCTYPE svg PUBLIC "-//W3C//DTD SVG 1.1 Tiny//EN" "http://www.w3.org/Graphics/SVG/1.1/DTD/svg11-tiny.dtd">
<svg xmlns="http://www.w3.org/2000/svg" xmlns:xlink="http://www.w3.org/1999/xlink" baseProfile="tiny" height="32px" version="1.1" viewBox="0 0 22 22" width="32px" x="0px" y="0px">
<rect fill="none" height="32" width="32"/>
<path d="M20.096,3.039c0,0-18.383,0-18.723,0S0.572,3.204,0.572,3.837v13.107c0,0.457,0.377,0.799,0.801,0.799h8.299  l-1.033,2.541c-0.213,0.312,0.068,1.25,0.945,0.99l4.15-1.47c0.107-0.039,0.578-0.272,0.689-0.385l1.656-1.676h4.016  c0.438,0,0.801-0.356,0.801-0.799V3.837C20.896,3.301,20.426,3.039,20.096,3.039z" fill-opacity="0.4" stroke-opacity="0.4"/>
<path d="M1.373,3.838v0.821c1.023,0.646,8.836,5.584,9.291,5.872c0.438-0.278,7.973-5.033,9.432-5.954V3.838H1.373z" fill="#FFFFFF"/>
<path d="M10.408,11.466L1.373,5.758v11.187h8.625c0,0,0.35-0.973,0.641-1.302l5.912-5.938  c0.367-0.375,1.156-0.796,2.053,0.012l1.492,1.49V5.676l-9.178,5.791C10.762,11.564,10.563,11.564,10.408,11.466z" fill="#FFFFFF"/>
<polygon fill="#FFFFFF" points="20.096,16.945 20.096,13.677 16.869,16.945 "/>
<polygon fill="#FFFFFF" points="9.334,20.568 13.484,19.097 10.961,16.573 "/>
<path d="M19.787,11.958l-1.715-1.714c-0.295-0.297-0.658-0.35-0.988-0.008l-5.707,5.731  c0.037,0.025,2.686,2.685,2.713,2.726l5.727-5.798C20.053,12.625,20.08,12.255,19.787,11.958z" fill="#FFFFFF"/>
</svg>
