<?xml version="1.0" encoding="utf-8"?>
<!-- Generator: Adobe Illustrator 14.0.0, SVG Export Plug-In  -->
<!DOCTYPE svg PUBLIC "-//W3C//DTD SVG 1.1//EN" "http://www.w3.org/Graphics/SVG/1.1/DTD/svg11.dtd" [
	<!ENTITY ns_flows "http://ns.adobe.com/Flows/1.0/">
]>
<svg version="1.1"
	 xmlns="http://www.w3.org/2000/svg" xmlns:xlink="http://www.w3.org/1999/xlink" xmlns:a="http://ns.adobe.com/AdobeSVGViewerExtensions/3.0/"
	 x="0px" y="0px" width="32px" height="32px" viewBox="-9 -3 32 32" enable-background="new -9 -3 32 32" xml:space="preserve">
<defs>
</defs>
<path d="M13,0H6C4.898,0,4,0.9,4,2v14.5C4,18.434,5.566,20,7.5,20c1.932,0,3.5-1.566,3.5-3.5V5H9v11.5C9,17.327,8.326,18,7.5,18
	C6.672,18,6,17.327,6,16.5V2h7v17.395L9.93,24H5.07L2,19.395V8H0v12l4,6h7l4-6V2C15,0.9,14.1,0,13,0z"/>
</svg>
