<?xml version="1.0" encoding="utf-8"?>
<!-- Generator: Adobe Illustrator 14.0.0, SVG Export Plug-In  -->
<!DOCTYPE svg PUBLIC "-//W3C//DTD SVG 1.1//EN" "http://www.w3.org/Graphics/SVG/1.1/DTD/svg11.dtd" [
	<!ENTITY ns_flows "http://ns.adobe.com/Flows/1.0/">
]>
<svg version="1.1"
	 xmlns="http://www.w3.org/2000/svg" xmlns:xlink="http://www.w3.org/1999/xlink" xmlns:a="http://ns.adobe.com/AdobeSVGViewerExtensions/3.0/"
	 x="0px" y="0px" width="32px" height="32px" viewBox="-3 -3 32 32" enable-background="new -3 -3 32 32" xml:space="preserve">
<defs>
</defs>
<path d="M16.813,13.657c0.711-0.849,1.363-2.117,1.363-3.617c0-1.499-0.703-4.04-3.174-4.04c-2.469,0-3.172,2.704-3.172,4.04
	c0,1.337,0.457,2.672,1.363,3.617c1.785,1.865-2.877,2.49-3.49,3.647C9.4,17.878,8.491,20,9.379,20c1.203,0,10.039,0,11.246,0
	c0.875,0-0.02-2.122-0.322-2.695C19.691,16.147,15.209,15.575,16.813,13.657z"/>
<path d="M25,0H4C3.45,0,3,0.45,3,1v3H2C0.897,4,0,4.897,0,6s0.897,2,2,2h1v3H2c-1.103,0-2,0.897-2,2s0.897,2,2,2h1v3H2
	c-1.103,0-2,0.897-2,2s0.897,2,2,2h1v3c0,0.55,0.45,1,1,1h21c0.549,0,1-0.45,1-1V1C26,0.45,25.549,0,25,0z M2,7C1.45,7,1,6.55,1,6
	s0.45-1,1-1h3c0.55,0,1,0.45,1,1S5.55,7,5,7H2z M2,14c-0.55,0-1-0.45-1-1s0.45-1,1-1h3c0.55,0,1,0.45,1,1s-0.45,1-1,1H2z M2,21
	c-0.55,0-1-0.45-1-1s0.45-1,1-1h3c0.55,0,1,0.45,1,1s-0.45,1-1,1H2z M24,24H5v-2c1.103,0,2-0.897,2-2s-0.897-2-2-2v-3
	c1.103,0,2-0.897,2-2s-0.897-2-2-2V8c1.103,0,2-0.897,2-2S6.103,4,5,4V2h19V24z"/>
</svg>
