<?xml version="1.0" encoding="utf-8"?>
<!-- Generator: Adobe Illustrator 14.0.0, SVG Export Plug-In  -->
<!DOCTYPE svg PUBLIC "-//W3C//DTD SVG 1.1//EN" "http://www.w3.org/Graphics/SVG/1.1/DTD/svg11.dtd" [
	<!ENTITY ns_flows "http://ns.adobe.com/Flows/1.0/">
]>
<svg version="1.1"
	 xmlns="http://www.w3.org/2000/svg" xmlns:xlink="http://www.w3.org/1999/xlink" xmlns:a="http://ns.adobe.com/AdobeSVGViewerExtensions/3.0/"
	 x="0px" y="0px" width="8px" height="8px" viewBox="0 0 8 8" enable-background="new 0 0 8 8" xml:space="preserve">
<defs>
</defs>
<g>
	<rect fill="none" width="8" height="8"/>
</g>
<path fill="#4F9EB0" d="M0,4c0,2.2,1.8,4,4,4s4-1.8,4-4V0H0V4z"/>
<path opacity="0.2" fill="#63BDCF" d="M4,5C2.346,5,1,3.654,1,2v2c0,1.654,1.346,3,3,3s3-1.346,3-3V2C7,3.654,5.654,5,4,5z"/>
<path opacity="0.2" d="M7,4c0,1.654-1.346,3-3,3S1,5.654,1,4V0H0v4c0,2.2,1.8,4,4,4s4-1.8,4-4V0H7V4z"/>
</svg>
